<svg id="Layer_1" data-name="Layer 1" xmlns="http://www.w3.org/2000/svg" viewBox="0 0 1000 1000"><g id="Layer_2" data-name="Layer 2"><g id="Layer_1-2" data-name="Layer 1-2"><path d="M693.33,668.42h140.9V574.13h47.35V240.92h-46V193H787.4V144.66H739.46V98.28H358.4v46.06H263.12v48.08H215.29v47.17H167.94V382.76H120.66V716.47h46.47v95.26h47.08v47.78h95.72v47.71H738.62v95H310.69V955.75H215V908H167.54V860.53H120.19V812.64h-48V717.46H25.49V383.76H71V240.87h48.18V193h47.74V144.48h47.35V97.4h48.47V49.78h95V2.43H739.41V49.58h95.31V96.7h47.35v47.22h47.71v95.69h47.35v334.2H930.8v95H882.66v47.91H835.31v47.1H644.49v-46H596.71V670.09H549.63V716.6H501.36V764H311V717.19H263.63V383.48H310V336.13h48V288.2h94.7V241.14H739V430.32H693.33ZM359,430.43V668.28H501.24V620.93h48.48V573.16h46.76V430.65h46.81V336.86H453v46.62H405.64v46.88Z"/></g></g></svg>