<svg xmlns="http://www.w3.org/2000/svg" viewBox="0 0 1001.29 1001.29"><g id="Layer_2" data-name="Layer 2"><g id="Layer_1-2" data-name="Layer 1"><rect x="250.32" width="62.58" height="62.58"/><rect x="312.9" width="62.58" height="62.58"/><rect x="375.48" width="62.58" height="62.58"/><rect x="438.06" width="62.58" height="62.58"/><rect x="500.65" width="62.58" height="62.58"/><rect x="563.23" width="62.58" height="62.58"/><rect x="625.81" width="62.58" height="62.58"/><rect x="688.39" width="62.58" height="62.58"/><rect x="187.74" y="62.58" width="62.58" height="62.58"/><rect x="250.32" y="62.58" width="62.58" height="62.58"/><rect x="312.9" y="62.58" width="62.58" height="62.58"/><rect x="375.48" y="62.58" width="62.58" height="62.58"/><rect x="438.06" y="62.58" width="62.58" height="62.58"/><rect x="500.65" y="62.58" width="62.58" height="62.58"/><rect x="563.23" y="62.58" width="62.58" height="62.58"/><rect x="625.81" y="62.58" width="62.58" height="62.58"/><rect x="688.39" y="62.58" width="62.58" height="62.58"/><rect x="750.97" y="62.58" width="62.58" height="62.58"/><rect x="125.16" y="125.16" width="62.58" height="62.58"/><rect x="187.74" y="125.16" width="62.58" height="62.58"/><rect x="250.32" y="125.16" width="62.58" height="62.58"/><rect x="312.9" y="125.16" width="62.58" height="62.58"/><rect x="375.48" y="125.16" width="62.58" height="62.58"/><rect x="438.06" y="125.16" width="62.58" height="62.58"/><rect x="500.65" y="125.16" width="62.58" height="62.58"/><rect x="563.23" y="125.16" width="62.58" height="62.58"/><rect x="625.81" y="125.16" width="62.58" height="62.58"/><rect x="688.39" y="125.16" width="62.58" height="62.58"/><rect x="750.97" y="125.16" width="62.58" height="62.58"/><rect x="813.55" y="125.16" width="62.58" height="62.58"/><rect x="62.58" y="187.74" width="62.58" height="62.58"/><rect x="125.16" y="187.74" width="62.58" height="62.58"/><rect x="187.74" y="187.74" width="62.58" height="62.58"/><rect x="312.9" y="187.74" width="62.58" height="62.58"/><rect x="375.48" y="187.74" width="62.58" height="62.58"/><rect x="438.06" y="187.74" width="62.58" height="62.58"/><rect x="500.65" y="187.74" width="62.58" height="62.58"/><rect x="563.23" y="187.74" width="62.58" height="62.58"/><rect x="625.81" y="187.74" width="62.58" height="62.58"/><rect x="750.97" y="187.74" width="62.58" height="62.58"/><rect x="813.55" y="187.74" width="62.58" height="62.58"/><rect x="876.13" y="187.74" width="62.58" height="62.58"/><rect x="62.58" y="250.32" width="62.58" height="62.58"/><rect x="125.16" y="250.32" width="62.58" height="62.58"/><rect x="187.74" y="250.32" width="62.58" height="62.58"/><rect x="750.97" y="250.32" width="62.58" height="62.58"/><rect x="813.55" y="250.32" width="62.58" height="62.58"/><rect x="876.13" y="250.32" width="62.58" height="62.58"/><rect x="62.58" y="312.9" width="62.58" height="62.58"/><rect x="125.16" y="312.9" width="62.58" height="62.58"/><rect x="187.74" y="312.9" width="62.58" height="62.58"/><rect x="750.97" y="312.9" width="62.58" height="62.58"/><rect x="813.55" y="312.9" width="62.58" height="62.58"/><rect x="876.13" y="312.9" width="62.58" height="62.58"/><rect y="375.48" width="62.58" height="62.58"/><rect x="62.58" y="375.48" width="62.58" height="62.58"/><rect x="125.16" y="375.48" width="62.58" height="62.58"/><rect x="813.55" y="375.48" width="62.58" height="62.58"/><rect x="876.13" y="375.48" width="62.58" height="62.58"/><rect x="938.71" y="375.48" width="62.58" height="62.58"/><rect y="438.06" width="62.58" height="62.58"/><rect x="62.58" y="438.06" width="62.58" height="62.58"/><rect x="125.16" y="438.06" width="62.58" height="62.58"/><rect x="813.55" y="438.06" width="62.58" height="62.58"/><rect x="876.13" y="438.06" width="62.58" height="62.58"/><rect x="938.71" y="438.06" width="62.58" height="62.58"/><rect y="500.65" width="62.58" height="62.58"/><rect x="62.58" y="500.65" width="62.58" height="62.58"/><rect x="125.16" y="500.65" width="62.58" height="62.58"/><rect x="813.55" y="500.65" width="62.58" height="62.58"/><rect x="876.13" y="500.65" width="62.58" height="62.58"/><rect x="938.71" y="500.65" width="62.58" height="62.58"/><rect y="563.23" width="62.58" height="62.58"/><rect x="62.58" y="563.23" width="62.58" height="62.58"/><rect x="125.16" y="563.23" width="62.58" height="62.58"/><rect x="813.55" y="563.23" width="62.58" height="62.58"/><rect x="876.13" y="563.23" width="62.58" height="62.58"/><rect x="938.71" y="563.23" width="62.58" height="62.58"/><rect y="625.81" width="62.58" height="62.58"/><rect x="62.58" y="625.81" width="62.58" height="62.58"/><rect x="125.16" y="625.81" width="62.58" height="62.58"/><rect x="187.74" y="625.81" width="62.58" height="62.58"/><rect x="750.97" y="625.81" width="62.58" height="62.58"/><rect x="813.55" y="625.81" width="62.58" height="62.58"/><rect x="876.13" y="625.81" width="62.58" height="62.58"/><rect x="938.71" y="625.81" width="62.58" height="62.58"/><rect x="62.58" y="688.39" width="62.58" height="62.58"/><rect x="125.16" y="688.39" width="62.58" height="62.58"/><rect x="187.74" y="688.39" width="62.58" height="62.58"/><rect x="250.32" y="688.39" width="62.58" height="62.58"/><rect x="688.39" y="688.39" width="62.58" height="62.58"/><rect x="750.97" y="688.39" width="62.58" height="62.58"/><rect x="813.55" y="688.39" width="62.58" height="62.58"/><rect x="876.13" y="688.39" width="62.58" height="62.58"/><rect x="62.58" y="750.97" width="62.58" height="62.58"/><rect x="125.16" y="750.97" width="62.58" height="62.58"/><rect x="250.32" y="750.97" width="62.58" height="62.58"/><rect x="312.9" y="750.97" width="62.58" height="62.58"/><rect x="375.48" y="750.97" width="62.58" height="62.58"/><rect x="563.23" y="750.97" width="62.58" height="62.58"/><rect x="625.81" y="750.97" width="62.58" height="62.58"/><rect x="688.39" y="750.97" width="62.58" height="62.58"/><rect x="750.97" y="750.97" width="62.58" height="62.58"/><rect x="813.55" y="750.97" width="62.58" height="62.58"/><rect x="876.13" y="750.97" width="62.58" height="62.58"/><rect x="125.16" y="813.55" width="62.58" height="62.58"/><rect x="187.74" y="813.55" width="62.58" height="62.58"/><rect x="625.81" y="813.55" width="62.58" height="62.58"/><rect x="688.39" y="813.55" width="62.58" height="62.58"/><rect x="750.97" y="813.55" width="62.58" height="62.58"/><rect x="813.55" y="813.55" width="62.58" height="62.58"/><rect x="187.74" y="876.13" width="62.58" height="62.58"/><rect x="250.32" y="876.13" width="62.58" height="62.58"/><rect x="312.9" y="876.13" width="62.58" height="62.58"/><rect x="375.48" y="876.13" width="62.58" height="62.58"/><rect x="625.81" y="876.13" width="62.58" height="62.58"/><rect x="688.39" y="876.13" width="62.58" height="62.58"/><rect x="750.97" y="876.13" width="62.58" height="62.58"/><rect x="250.32" y="938.71" width="62.58" height="62.58"/><rect x="312.9" y="938.71" width="62.58" height="62.58"/><rect x="375.48" y="938.71" width="62.58" height="62.58"/><rect x="625.81" y="938.71" width="62.58" height="62.58"/><rect x="688.39" y="938.71" width="62.58" height="62.58"/></g></g></svg>