<svg xmlns="http://www.w3.org/2000/svg" viewBox="0 0 998.29 998.29"><g id="Layer_2" data-name="Layer 2"><g id="Layer_1-2" data-name="Layer 1"><rect x="187.18" y="62.39" width="62.39" height="62.39"/><rect x="249.57" y="62.39" width="62.39" height="62.39"/><rect x="311.97" y="62.39" width="62.39" height="62.39"/><rect x="374.36" y="62.39" width="62.39" height="62.39"/><rect x="436.75" y="62.39" width="62.39" height="62.39"/><rect x="499.15" y="62.39" width="62.39" height="62.39"/><rect x="561.54" y="62.39" width="62.39" height="62.39"/><rect x="623.93" y="62.39" width="62.39" height="62.39"/><rect x="686.32" y="62.39" width="62.39" height="62.39"/><rect x="748.72" y="62.39" width="62.39" height="62.39"/><rect x="811.11" y="62.39" width="62.39" height="62.39"/><rect x="873.5" y="62.39" width="62.39" height="62.39"/><rect x="62.39" y="124.79" width="62.39" height="62.39"/><rect x="124.79" y="124.79" width="62.39" height="62.39"/><rect x="187.18" y="124.79" width="62.39" height="62.39"/><rect x="249.57" y="124.79" width="62.39" height="62.39"/><rect x="311.97" y="124.79" width="62.39" height="62.39"/><rect x="374.36" y="124.79" width="62.39" height="62.39"/><rect x="436.75" y="124.79" width="62.39" height="62.39"/><rect x="499.15" y="124.79" width="62.39" height="62.39"/><rect x="561.54" y="124.79" width="62.39" height="62.39"/><rect x="623.93" y="124.79" width="62.39" height="62.39"/><rect x="686.32" y="124.79" width="62.39" height="62.39"/><rect x="748.72" y="124.79" width="62.39" height="62.39"/><rect x="811.11" y="124.79" width="62.39" height="62.39"/><rect x="873.5" y="124.79" width="62.39" height="62.39"/><rect x="62.39" y="187.18" width="62.39" height="62.39"/><rect x="124.79" y="187.18" width="62.39" height="62.39"/><rect x="311.97" y="187.18" width="62.39" height="62.39"/><rect x="374.36" y="187.18" width="62.39" height="62.39"/><rect x="436.75" y="187.18" width="62.39" height="62.39"/><rect x="499.15" y="187.18" width="62.39" height="62.39"/><rect x="561.54" y="187.18" width="62.39" height="62.39"/><rect x="623.93" y="187.18" width="62.39" height="62.39"/><rect x="686.32" y="187.18" width="62.39" height="62.39"/><rect x="748.72" y="187.18" width="62.39" height="62.39"/><rect x="811.11" y="187.18" width="62.39" height="62.39"/><rect x="873.5" y="187.18" width="62.39" height="62.39"/><rect x="62.39" y="249.57" width="62.39" height="62.39"/><rect x="124.79" y="249.57" width="62.39" height="62.39"/><rect x="311.97" y="249.57" width="62.39" height="62.39"/><rect x="374.36" y="249.57" width="62.39" height="62.39"/><rect x="436.75" y="249.57" width="62.39" height="62.39"/><rect x="499.15" y="249.57" width="62.39" height="62.39"/><rect x="561.54" y="249.57" width="62.39" height="62.39"/><rect x="623.93" y="249.57" width="62.39" height="62.39"/><rect x="686.32" y="249.57" width="62.39" height="62.39"/><rect x="748.72" y="249.57" width="62.39" height="62.39"/><rect x="811.11" y="249.57" width="62.39" height="62.39"/><rect x="873.5" y="249.57" width="62.39" height="62.39"/><rect x="62.39" y="311.97" width="62.39" height="62.39"/><rect x="124.79" y="311.97" width="62.39" height="62.39"/><rect x="187.18" y="311.97" width="62.39" height="62.39"/><rect x="249.57" y="311.97" width="62.39" height="62.39"/><rect x="311.97" y="311.97" width="62.39" height="62.39"/><rect x="374.36" y="311.97" width="62.39" height="62.39"/><rect x="436.75" y="311.97" width="62.39" height="62.39"/><rect x="499.15" y="311.97" width="62.39" height="62.39"/><rect x="561.54" y="311.97" width="62.39" height="62.39"/><rect x="623.93" y="311.97" width="62.39" height="62.39"/><rect x="686.32" y="311.97" width="62.39" height="62.39"/><rect x="748.72" y="311.97" width="62.39" height="62.39"/><rect x="811.11" y="311.97" width="62.39" height="62.39"/><rect x="873.5" y="311.97" width="62.39" height="62.39"/><rect x="62.39" y="374.36" width="62.39" height="62.39"/><rect x="124.79" y="374.36" width="62.39" height="62.39"/><rect x="311.97" y="374.36" width="62.39" height="62.39"/><rect x="374.36" y="374.36" width="62.39" height="62.39"/><rect x="561.54" y="374.36" width="62.39" height="62.39"/><rect x="748.72" y="374.36" width="62.39" height="62.39"/><rect x="811.11" y="374.36" width="62.39" height="62.39"/><rect x="873.5" y="374.36" width="62.39" height="62.39"/><rect x="62.39" y="436.75" width="62.39" height="62.39"/><rect x="124.79" y="436.75" width="62.39" height="62.39"/><rect x="311.97" y="436.75" width="62.39" height="62.39"/><rect x="374.36" y="436.75" width="62.39" height="62.39"/><rect x="811.11" y="436.75" width="62.39" height="62.39"/><rect x="873.5" y="436.75" width="62.39" height="62.39"/><rect x="62.39" y="499.15" width="62.39" height="62.39"/><rect x="124.79" y="499.15" width="62.39" height="62.39"/><rect x="311.97" y="499.15" width="62.39" height="62.39"/><rect x="374.36" y="499.15" width="62.39" height="62.39"/><rect x="561.54" y="499.15" width="62.39" height="62.39"/><rect x="623.93" y="499.15" width="62.39" height="62.39"/><rect x="811.11" y="499.15" width="62.39" height="62.39"/><rect x="873.5" y="499.15" width="62.39" height="62.39"/><rect x="62.39" y="561.54" width="62.39" height="62.39"/><rect x="124.79" y="561.54" width="62.39" height="62.39"/><rect x="311.97" y="561.54" width="62.39" height="62.39"/><rect x="374.36" y="561.54" width="62.39" height="62.39"/><rect x="561.54" y="561.54" width="62.39" height="62.39"/><rect x="623.93" y="561.54" width="62.39" height="62.39"/><rect x="811.11" y="561.54" width="62.39" height="62.39"/><rect x="873.5" y="561.54" width="62.39" height="62.39"/><rect x="62.39" y="623.93" width="62.39" height="62.39"/><rect x="124.79" y="623.93" width="62.39" height="62.39"/><rect x="311.97" y="623.93" width="62.39" height="62.39"/><rect x="374.36" y="623.93" width="62.39" height="62.39"/><rect x="561.54" y="623.93" width="62.39" height="62.39"/><rect x="623.93" y="623.93" width="62.39" height="62.39"/><rect x="811.11" y="623.93" width="62.39" height="62.39"/><rect x="873.5" y="623.93" width="62.39" height="62.39"/><rect x="62.39" y="686.32" width="62.39" height="62.39"/><rect x="124.79" y="686.32" width="62.39" height="62.39"/><rect x="311.97" y="686.32" width="62.39" height="62.39"/><rect x="374.36" y="686.32" width="62.39" height="62.39"/><rect x="561.54" y="686.32" width="62.39" height="62.39"/><rect x="623.93" y="686.32" width="62.39" height="62.39"/><rect x="811.11" y="686.32" width="62.39" height="62.39"/><rect x="873.5" y="686.32" width="62.39" height="62.39"/><rect x="62.39" y="748.72" width="62.39" height="62.39"/><rect x="124.79" y="748.72" width="62.39" height="62.39"/><rect x="311.97" y="748.72" width="62.39" height="62.39"/><rect x="374.36" y="748.72" width="62.39" height="62.39"/><rect x="561.54" y="748.72" width="62.39" height="62.39"/><rect x="623.93" y="748.72" width="62.39" height="62.39"/><rect x="811.11" y="748.72" width="62.39" height="62.39"/><rect x="873.5" y="748.72" width="62.39" height="62.39"/><rect x="62.39" y="811.11" width="62.39" height="62.39"/><rect x="124.79" y="811.11" width="62.39" height="62.39"/><rect x="187.18" y="811.11" width="62.39" height="62.39"/><rect x="249.57" y="811.11" width="62.39" height="62.39"/><rect x="311.97" y="811.11" width="62.39" height="62.39"/><rect x="374.36" y="811.11" width="62.39" height="62.39"/><rect x="436.75" y="811.11" width="62.39" height="62.39"/><rect x="499.15" y="811.11" width="62.39" height="62.39"/><rect x="561.54" y="811.11" width="62.39" height="62.39"/><rect x="623.93" y="811.11" width="62.39" height="62.39"/><rect x="686.32" y="811.11" width="62.39" height="62.39"/><rect x="748.72" y="811.11" width="62.39" height="62.39"/><rect x="811.11" y="811.11" width="62.39" height="62.39"/><rect x="873.5" y="811.11" width="62.39" height="62.39"/><rect x="62.39" y="873.5" width="62.39" height="62.39"/><rect x="124.79" y="873.5" width="62.39" height="62.39"/><rect x="187.18" y="873.5" width="62.39" height="62.39"/><rect x="249.57" y="873.5" width="62.39" height="62.39"/><rect x="311.97" y="873.5" width="62.39" height="62.39"/><rect x="374.36" y="873.5" width="62.39" height="62.39"/><rect x="436.75" y="873.5" width="62.39" height="62.39"/><rect x="499.15" y="873.5" width="62.39" height="62.39"/><rect x="561.54" y="873.5" width="62.39" height="62.39"/><rect x="623.93" y="873.5" width="62.39" height="62.39"/><rect x="686.32" y="873.5" width="62.39" height="62.39"/><rect x="748.72" y="873.5" width="62.39" height="62.39"/><rect x="124.79" y="62.39" width="62.39" height="62.39"/><rect x="811.11" y="873.5" width="62.39" height="62.39"/><rect x="935.9" y="124.79" width="62.39" height="62.39"/><rect x="935.9" y="187.18" width="62.39" height="62.39"/><rect x="935.9" y="249.57" width="62.39" height="62.39"/><rect x="935.9" y="311.97" width="62.39" height="62.39"/><rect x="935.9" y="374.36" width="62.39" height="62.39"/><rect x="935.9" y="436.75" width="62.39" height="62.39"/><rect x="935.9" y="499.15" width="62.39" height="62.39"/><rect x="935.9" y="561.54" width="62.39" height="62.39"/><rect x="935.9" y="623.93" width="62.39" height="62.39"/><rect x="935.9" y="686.32" width="62.39" height="62.39"/><rect x="935.9" y="748.72" width="62.39" height="62.39"/><rect x="935.9" y="811.11" width="62.39" height="62.39"/><rect x="873.5" y="873.5" width="62.39" height="62.39"/><rect x="124.79" y="935.9" width="62.39" height="62.39"/><rect x="187.18" y="935.9" width="62.39" height="62.39"/><rect x="249.57" y="935.9" width="62.39" height="62.39"/><rect x="311.97" y="935.9" width="62.39" height="62.39"/><rect x="374.36" y="935.9" width="62.39" height="62.39"/><rect x="436.75" y="935.9" width="62.39" height="62.39"/><rect x="499.15" y="935.9" width="62.39" height="62.39"/><rect x="561.54" y="935.9" width="62.39" height="62.39"/><rect x="623.93" y="935.9" width="62.39" height="62.39"/><rect x="686.32" y="935.9" width="62.39" height="62.39"/><rect x="748.72" y="935.9" width="62.39" height="62.39"/><rect x="811.11" y="935.9" width="62.39" height="62.39"/><rect x="124.79" width="62.39" height="62.39"/><rect x="187.18" width="62.39" height="62.39"/><rect x="249.57" width="62.39" height="62.39"/><rect x="311.97" width="62.39" height="62.39"/><rect x="374.36" width="62.39" height="62.39"/><rect x="436.75" width="62.39" height="62.39"/><rect x="499.15" width="62.39" height="62.39"/><rect x="561.54" width="62.39" height="62.39"/><rect x="623.93" width="62.39" height="62.39"/><rect x="686.32" width="62.39" height="62.39"/><rect x="748.72" width="62.39" height="62.39"/><rect x="811.11" width="62.39" height="62.39"/><rect x="62.39" y="62.39" width="62.39" height="62.39"/><rect y="124.79" width="62.39" height="62.39"/><rect y="187.18" width="62.39" height="62.39"/><rect y="249.57" width="62.39" height="62.39"/><rect y="311.97" width="62.39" height="62.39"/><rect y="374.36" width="62.39" height="62.39"/><rect y="436.75" width="62.39" height="62.39"/><rect y="499.15" width="62.39" height="62.39"/><rect y="561.54" width="62.39" height="62.39"/><rect y="623.93" width="62.39" height="62.39"/><rect y="686.32" width="62.39" height="62.39"/><rect y="748.72" width="62.39" height="62.39"/><rect y="811.11" width="62.39" height="62.39"/></g></g></svg>